<svg xmlns="http://www.w3.org/2000/svg" xmlns:xlink="http://www.w3.org/1999/xlink" version="1.1" width="839.815" height="369.392" viewBox="0 0 839.815 369.392">
<defs>
<clipPath id="clip_0">
<path transform="matrix(1,0,0,-1,-2.105,550.066)" d="M0 0H841.92007V595.32H0Z"/>
</clipPath>
</defs>
<g clip-path="url(#clip_0)">
<path transform="matrix(.75,0,0,.75,-2.105,-45.25403)" d="M31.84 73.28H1090.4V158.88H31.84Z" fill="#ffffff"/>
<path transform="matrix(.75,0,0,.75,-2.105,-45.25403)" d="M31.84 158.72H49.76V180.32H31.84Z" fill="#ffffff"/>
<path transform="matrix(.75,0,0,.75,-2.105,-45.25403)" d="M49.6 158.72H941.92V180.32H49.6Z" fill="#666666"/>
<path transform="matrix(.75,0,0,.75,-2.105,-45.25403)" d="M941.76 158.72H960.32V180.32H941.76Z" fill="#ffffff"/>
<path transform="matrix(.75,0,0,.75,-2.105,-45.25403)" d="M960.16 158.72H1072V180.32H960.16Z" fill="#666666"/>
<path transform="matrix(.75,0,0,.75,-2.105,-45.25403)" d="M1071.84 158.72H1090.4V180.32H1071.84ZM31.84 180.16H49.76V308.96H31.84Z" fill="#ffffff" fill-rule="evenodd"/>
<path transform="matrix(.75,0,0,.75,-2.105,-45.25403)" d="M49.6 180.16H346.08V308.96H49.6Z" fill="#cccccc"/>
<path transform="matrix(.75,0,0,.75,-2.105,-45.25403)" d="M345.92 180.16H1090.4V308.96H345.92Z" fill="#ffffff"/>
<path transform="matrix(.75,0,0,.75,-2.105,-45.25403)" d="M31.84 308.8H1090.4V348.16H31.84Z" fill="#ffffff"/>
<path transform="matrix(.75,0,0,.75,-2.105,-45.25403)" d="M31.84 348H49.76V369.6H31.84Z" fill="#ffffff"/>
<path transform="matrix(.75,0,0,.75,-2.105,-45.25403)" d="M49.6 348H941.92V369.6H49.6Z" fill="#666666"/>
<path transform="matrix(.75,0,0,.75,-2.105,-45.25403)" d="M941.76 348H960.32V369.6H941.76Z" fill="#ffffff"/>
<path transform="matrix(.75,0,0,.75,-2.105,-45.25403)" d="M960.16 348H1072V369.6H960.16Z" fill="#666666"/>
<path transform="matrix(.75,0,0,.75,-2.105,-45.25403)" d="M1071.84 348H1090.4V369.6H1071.84ZM31.84 369.44H49.76V498.24H31.84Z" fill="#ffffff" fill-rule="evenodd"/>
<path transform="matrix(.75,0,0,.75,-2.105,-45.25403)" d="M49.6 369.44H346.08V498.24H49.6Z" fill="#cccccc"/>
<path transform="matrix(.75,0,0,.75,-2.105,-45.25403)" d="M345.92 369.44H1090.4V498.24H345.92Z" fill="#ffffff"/>
<path transform="matrix(.75,0,0,.75,-2.105,-45.25403)" d="M31.84 498.08H1090.4V516H31.84Z" fill="#ffffff"/>
<text xml:space="preserve" transform="matrix(.75 0 0 .75 -2.105 -45.25403)" font-size="13.5995" font-family="F1" font-weight="bold"><tspan y="154.72" x="52.16 61.981126 69.46085 80.340457 84.11883 93.18959 100.75299 109.18468 114.352489">Raw Score</tspan></text>
<text fill="#ffffff" xml:space="preserve" transform="matrix(.75 0 0 .75 -2.105 -45.25403)" font-size="13.5995" font-family="F1" font-weight="bold"><tspan y="174.4" x="104.32 112.62711 120.10684 127.67024 139.76238 143.70623 153.52735 161.00707 173.0992 254.01624 262.4479 269.9276 277.40733 289.64689 293.42527 303.2464 311.5535 319.8606 361.74705 371.56819 379.04789 384.34025 389.6326 397.1123 400.8907 412.31425 419.79396 423.7378 432.0449 440.352 448.6591 456.9662 464.4459 472.753 534.4947 544.3158 551.79556 559.35897 563.8877 571.36746 579.67459 584.967 592.4467 600.75387 661.4076 670.47836 675.0071 683.3142 688.6066 692.385 700.8167 709.12387 712.9022 723.48037 728.77279 737.0799 744.6433 752.12307 757.41549 761.19387 768.75729 848.9943 858.06509 865.5448 873.9765 879.14437 1000.04397 1009.6996 1017.263 1025.5702">Team NameTeam CodeCarry My LuggageRestaurantStoring GroceriesScoreRank</tspan></text>
<text xml:space="preserve" transform="matrix(.75 0 0 .75 -2.105 -45.25403)" font-size="13.5995" font-family="F1" font-weight="bold"><tspan y="195.84" x="64.64 72.94711 76.72549 86.54661 96.36773 104.67484 109.20358 249.27845 253.05683 262.87797 272.6991 277.05094 284.61433">TIDBotsIHR-01</tspan></text>
<text xml:space="preserve" transform="matrix(.75 0 0 .75 -2.105 -45.25403)" font-size="11.6795" font-family="F2"><tspan y="195.04" x="403.04 409.53559 416.1929 422.68849 425.9334 432.429 552.0271 558.52267 565.0182 571.6755 574.829 581.48629 700.9675 707.4631 714.12039 720.6159 723.86087 730.3564">250.00175.00167.00</tspan></text>
<text fill="#ff9900" xml:space="preserve" transform="matrix(.75 0 0 .75 -2.105 -45.25403)" font-size="11.6795" font-family="F1" font-weight="bold"><tspan y="195.04" x="849.92 856.4155 863.0728 869.56838 872.8133 879.30886">592.00</tspan></text>
<text xml:space="preserve" transform="matrix(.75 0 0 .75 -2.105 -45.25403)" font-size="11.6795" font-family="F2"><tspan y="195.04" x="1013.28">1</tspan></text>
<text xml:space="preserve" transform="matrix(.75 0 0 .75 -2.105 -45.25403)" font-size="13.5995" font-family="F1" font-weight="bold"><tspan y="217.28" x="64.64 72.94711 82.768238 92.15189 95.93027 249.33261 253.111 262.93214 272.58778 277.1165 284.5962">TRAILIHR-02</tspan></text>
<text xml:space="preserve" transform="matrix(.75 0 0 .75 -2.105 -45.25403)" font-size="11.6795" font-family="F2"><tspan y="216.48" x="403.04 409.53559 416.1929 422.68849 425.9334 432.429 552.0271 558.52267 565.0182 571.6755 574.829 581.48629 707.50808 714.0036 717.24856 723.7441">400.00100.005.00</tspan></text>
<text fill="#ff9900" xml:space="preserve" transform="matrix(.75 0 0 .75 -2.105 -45.25403)" font-size="11.6795" font-family="F1" font-weight="bold"><tspan y="216.48" x="849.92 856.4155 863.0728 869.56838 872.8133 879.30886">505.00</tspan></text>
<text xml:space="preserve" transform="matrix(.75 0 0 .75 -2.105 -45.25403)" font-size="11.6795" font-family="F2"><tspan y="216.48" x="1013.28">2</tspan></text>
<text xml:space="preserve" transform="matrix(.75 0 0 .75 -2.105 -45.25403)" font-size="13.5995" font-family="F1" font-weight="bold"><tspan y="238.72" x="64.64 74.46112 78.239498 86.54661 90.32498 97.88838 101.666759 110.09844 118.405559 122.934299 134.26279 142.56992 150.04964 157.61304 165.09276 173.39989 177.34374 190.53525 200.35639 208.66352 220.75565 249.3146 253.09299 262.91413 272.56977 277.09849 284.5782">Hibikino-Musashi@HomeIHR-03</tspan></text>
<text xml:space="preserve" transform="matrix(.75 0 0 .75 -2.105 -45.25403)" font-size="11.6795" font-family="F2"><tspan y="237.92" x="409.6 416.09559 419.3405 425.8361 558.5152 565.1725 568.326 574.82156 707.5006 713.99618 717.2411 723.73666">0.000.000.00</tspan></text>
<text fill="#ff9900" xml:space="preserve" transform="matrix(.75 0 0 .75 -2.105 -45.25403)" font-size="11.6795" font-family="F1" font-weight="bold"><tspan y="237.92" x="856.48 862.9755 866.22048 872.716">0.00</tspan></text>
<text xml:space="preserve" transform="matrix(.75 0 0 .75 -2.105 -45.25403)" font-size="11.6795" font-family="F2"><tspan y="237.92" x="1013.28">6</tspan></text>
<text xml:space="preserve" transform="matrix(.75 0 0 .75 -2.105 -45.25403)" font-size="13.5995" font-family="F1" font-weight="bold"><tspan y="260.16" x="64.64 72.11973 81.94085 95.13236 102.69576 110.17549 115.46787 249.28696 253.06534 262.88648 272.7076 277.05946 284.62284">eR@sersIHR-04</tspan></text>
<text xml:space="preserve" transform="matrix(.75 0 0 .75 -2.105 -45.25403)" font-size="11.6795" font-family="F2"><tspan y="259.36" x="403.04 409.53559 416.1929 422.68849 425.9334 432.429 552.0271 558.52267 565.0182 571.6755 574.829 581.48629 707.50808 714.0036 717.24856 723.7441">375.00125.005.00</tspan></text>
<text fill="#ff9900" xml:space="preserve" transform="matrix(.75 0 0 .75 -2.105 -45.25403)" font-size="11.6795" font-family="F1" font-weight="bold"><tspan y="259.36" x="849.92 856.4155 863.0728 869.56838 872.8133 879.30886">505.00</tspan></text>
<text xml:space="preserve" transform="matrix(.75 0 0 .75 -2.105 -45.25403)" font-size="11.6795" font-family="F2"><tspan y="259.36" x="1013.28">2</tspan></text>
<text xml:space="preserve" transform="matrix(.75 0 0 .75 -2.105 -45.25403)" font-size="13.5995" font-family="F1" font-weight="bold"><tspan y="281.6" x="64.64 73.71076 84.28889 94.11001 97.88838 106.195499 249.26224 253.04062 262.86177 272.6829 277.2116 284.6913">SOBITSIHR-05</tspan></text>
<text xml:space="preserve" transform="matrix(.75 0 0 .75 -2.105 -45.25403)" font-size="11.6795" font-family="F2"><tspan y="280.8" x="409.6 416.09559 419.3405 425.8361 551.97476 558.4703 565.12759 571.6231 574.86807 581.3636 704.1151 710.7724 717.26797 720.42147 727.07876">0.00220.0064.00</tspan></text>
<text fill="#ff9900" xml:space="preserve" transform="matrix(.75 0 0 .75 -2.105 -45.25403)" font-size="11.6795" font-family="F1" font-weight="bold"><tspan y="280.8" x="849.92 856.4155 863.0728 869.56838 872.8133 879.30886">284.00</tspan></text>
<text xml:space="preserve" transform="matrix(.75 0 0 .75 -2.105 -45.25403)" font-size="11.6795" font-family="F2"><tspan y="280.8" x="1013.28">5</tspan></text>
<text xml:space="preserve" transform="matrix(.75 0 0 .75 -2.105 -45.25403)" font-size="13.5995" font-family="F1" font-weight="bold"><tspan y="303.04" x="64.64 72.94711 80.42684 91.850429 101.67155 106.023387 115.844509 124.91527 249.21469 253.15854 262.81419 272.6353 277.16404 284.64375">TaMC-HSRIHR-06</tspan></text>
<text xml:space="preserve" transform="matrix(.75 0 0 .75 -2.105 -45.25403)" font-size="11.6795" font-family="F2"><tspan y="302.24" x="409.6 416.09559 419.3405 425.8361 551.97476 558.4703 565.12759 571.6231 574.86807 581.3636 700.9617 707.4572 714.1145 720.61007 723.855 730.3505">0.00100.00246.00</tspan></text>
<text fill="#ff9900" xml:space="preserve" transform="matrix(.75 0 0 .75 -2.105 -45.25403)" font-size="11.6795" font-family="F1" font-weight="bold"><tspan y="302.24" x="849.92 856.4155 863.0728 869.56838 872.8133 879.30886">346.00</tspan></text>
<text xml:space="preserve" transform="matrix(.75 0 0 .75 -2.105 -45.25403)" font-size="11.6795" font-family="F2"><tspan y="302.24" x="1013.28">4</tspan></text>
<text xml:space="preserve" transform="matrix(.75 0 0 .75 -2.105 -45.25403)" font-size="13.5995" font-family="F1" font-weight="bold"><tspan y="344" x="52.16 61.981126 70.28824 75.45605 87.6956 95.17533 98.953708 102.89756 109.69731 117.26071 125.567829 129.3462 138.59387 146.0736 154.38072 159.67311">Normalized Score</tspan></text>
<text fill="#ffffff" xml:space="preserve" transform="matrix(.75 0 0 .75 -2.105 -45.25403)" font-size="13.5995" font-family="F1" font-weight="bold"><tspan y="363.68" x="104.32 112.62711 120.10684 127.67024 139.76238 143.70623 153.52735 161.00707 173.0992 254.01624 262.4479 269.9276 277.40733 289.64689 293.42527 303.2464 311.5535 319.8606 361.74705 371.56819 379.04789 384.34025 389.6326 397.1123 400.8907 412.31425 419.79396 423.7378 432.0449 440.352 448.6591 456.9662 464.4459 472.753 534.4947 544.3158 551.79556 559.35897 563.8877 571.36746 579.67459 584.967 592.4467 600.75387 661.4076 670.47836 675.0071 683.3142 688.6066 692.385 700.8167 709.12387 712.9022 723.48037 728.77279 737.0799 744.6433 752.12307 757.41549 761.19387 768.75729 848.9943 858.06509 865.5448 873.9765 879.14437 1000.04397 1009.6996 1017.263 1025.5702">Team NameTeam CodeCarry My LuggageRestaurantStoring GroceriesScoreRank</tspan></text>
<text xml:space="preserve" transform="matrix(.75 0 0 .75 -2.105 -45.25403)" font-size="13.5995" font-family="F1" font-weight="bold"><tspan y="385.12" x="64.64 72.94711 76.72549 86.54661 96.36773 104.67484 109.20358 249.27845 253.05683 262.87797 272.6991 277.05094 284.61433">TIDBotsIHR-01</tspan></text>
<text xml:space="preserve" transform="matrix(.75 0 0 .75 -2.105 -45.25403)" font-size="11.6795" font-family="F2"><tspan y="384.32" x="406.24 412.73558 419.39289 422.54637 429.04194 555.18057 561.6761 568.3334 571.4869 577.9824 704.121 710.6165 717.2738 720.4273 727.0846">62.5079.5567.89</tspan></text>
<text fill="#ff9900" xml:space="preserve" transform="matrix(.75 0 0 .75 -2.105 -45.25403)" font-size="11.6795" font-family="F1" font-weight="bold"><tspan y="384.32" x="849.92 856.4155 863.0728 869.56838 872.8133 879.30886">209.93</tspan></text>
<text xml:space="preserve" transform="matrix(.75 0 0 .75 -2.105 -45.25403)" font-size="11.6795" font-family="F2"><tspan y="384.32" x="1013.28">1</tspan></text>
<text xml:space="preserve" transform="matrix(.75 0 0 .75 -2.105 -45.25403)" font-size="13.5995" font-family="F1" font-weight="bold"><tspan y="406.56" x="64.64 72.94711 82.768238 92.15189 95.93027 249.33261 253.111 262.93214 272.58778 277.1165 284.5962">TRAILIHR-02</tspan></text>
<text xml:space="preserve" transform="matrix(.75 0 0 .75 -2.105 -45.25403)" font-size="11.6795" font-family="F2"><tspan y="405.76" x="403.04 409.53559 416.1929 422.68849 425.9334 432.429 555.18057 561.6761 568.3334 571.4869 577.9824 707.50808 714.0036 717.24856 723.7441">100.0045.452.03</tspan></text>
<text fill="#ff9900" xml:space="preserve" transform="matrix(.75 0 0 .75 -2.105 -45.25403)" font-size="11.6795" font-family="F1" font-weight="bold"><tspan y="405.76" x="849.92 856.4155 863.0728 869.56838 872.8133 879.30886">147.49</tspan></text>
<text xml:space="preserve" transform="matrix(.75 0 0 .75 -2.105 -45.25403)" font-size="11.6795" font-family="F2"><tspan y="405.76" x="1013.28">3</tspan></text>
<text xml:space="preserve" transform="matrix(.75 0 0 .75 -2.105 -45.25403)" font-size="13.5995" font-family="F1" font-weight="bold"><tspan y="428" x="64.64 74.46112 78.239498 86.54661 90.32498 97.88838 101.666759 110.09844 118.405559 122.934299 134.26279 142.56992 150.04964 157.61304 165.09276 173.39989 177.34374 190.53525 200.35639 208.66352 220.75565 249.3146 253.09299 262.91413 272.56977 277.09849 284.5782">Hibikino-Musashi@HomeIHR-03</tspan></text>
<text xml:space="preserve" transform="matrix(.75 0 0 .75 -2.105 -45.25403)" font-size="11.6795" font-family="F2"><tspan y="427.2" x="409.6 416.09559 419.3405 425.8361 558.5152 565.1725 568.326 574.82156 707.5006 713.99618 717.2411 723.73666">0.000.000.00</tspan></text>
<text fill="#ff9900" xml:space="preserve" transform="matrix(.75 0 0 .75 -2.105 -45.25403)" font-size="11.6795" font-family="F1" font-weight="bold"><tspan y="427.2" x="856.48 862.9755 866.22048 872.716">0.00</tspan></text>
<text xml:space="preserve" transform="matrix(.75 0 0 .75 -2.105 -45.25403)" font-size="11.6795" font-family="F2"><tspan y="427.2" x="1013.28">6</tspan></text>
<text xml:space="preserve" transform="matrix(.75 0 0 .75 -2.105 -45.25403)" font-size="13.5995" font-family="F1" font-weight="bold"><tspan y="449.44" x="64.64 72.11973 81.94085 95.13236 102.69576 110.17549 115.46787 249.28696 253.06534 262.88648 272.7076 277.05946 284.62284">eR@sersIHR-04</tspan></text>
<text xml:space="preserve" transform="matrix(.75 0 0 .75 -2.105 -45.25403)" font-size="11.6795" font-family="F2"><tspan y="448.64" x="406.24 412.73558 419.39289 422.54637 429.04194 555.18057 561.6761 568.3334 571.4869 577.9824 707.50808 714.0036 717.24856 723.7441">93.7556.822.03</tspan></text>
<text fill="#ff9900" xml:space="preserve" transform="matrix(.75 0 0 .75 -2.105 -45.25403)" font-size="11.6795" font-family="F1" font-weight="bold"><tspan y="448.64" x="849.92 856.4155 863.0728 869.56838 872.8133 879.30886">152.60</tspan></text>
<text xml:space="preserve" transform="matrix(.75 0 0 .75 -2.105 -45.25403)" font-size="11.6795" font-family="F2"><tspan y="448.64" x="1013.28">2</tspan></text>
<text xml:space="preserve" transform="matrix(.75 0 0 .75 -2.105 -45.25403)" font-size="13.5995" font-family="F1" font-weight="bold"><tspan y="470.88" x="64.64 73.71076 84.28889 94.11001 97.88838 106.195499 249.26224 253.04062 262.86177 272.6829 277.2116 284.6913">SOBITSIHR-05</tspan></text>
<text xml:space="preserve" transform="matrix(.75 0 0 .75 -2.105 -45.25403)" font-size="11.6795" font-family="F2"><tspan y="470.08" x="409.6 416.09559 419.3405 425.8361 551.97476 558.4703 565.12759 571.6231 574.86807 581.3636 704.1151 710.7724 717.26797 720.42147 727.07876">0.00100.0026.02</tspan></text>
<text fill="#ff9900" xml:space="preserve" transform="matrix(.75 0 0 .75 -2.105 -45.25403)" font-size="11.6795" font-family="F1" font-weight="bold"><tspan y="470.08" x="849.92 856.4155 863.0728 869.56838 872.8133 879.30886">126.02</tspan></text>
<text xml:space="preserve" transform="matrix(.75 0 0 .75 -2.105 -45.25403)" font-size="11.6795" font-family="F2"><tspan y="470.08" x="1013.28">5</tspan></text>
<text xml:space="preserve" transform="matrix(.75 0 0 .75 -2.105 -45.25403)" font-size="13.5995" font-family="F1" font-weight="bold"><tspan y="492.32" x="64.64 72.94711 80.42684 91.850429 101.67155 106.023387 115.844509 124.91527 249.21469 253.15854 262.81419 272.6353 277.16404 284.64375">TaMC-HSRIHR-06</tspan></text>
<text xml:space="preserve" transform="matrix(.75 0 0 .75 -2.105 -45.25403)" font-size="11.6795" font-family="F2"><tspan y="491.52" x="409.6 416.09559 419.3405 425.8361 555.24496 561.7405 568.236 571.48098 577.9765 700.9616 707.45718 714.11447 720.61 723.8549 730.35049">0.0045.45100.00</tspan></text>
<text fill="#ff9900" xml:space="preserve" transform="matrix(.75 0 0 .75 -2.105 -45.25403)" font-size="11.6795" font-family="F1" font-weight="bold"><tspan y="491.52" x="849.92 856.4155 863.0728 869.56838 872.8133 879.30886">145.45</tspan></text>
<text xml:space="preserve" transform="matrix(.75 0 0 .75 -2.105 -45.25403)" font-size="11.6795" font-family="F2"><tspan y="491.52" x="1013.28">4</tspan></text>
<text xml:space="preserve" transform="matrix(.75 0 0 .75 -2.105 -45.25403)" font-size="19.5192" font-family="F1" font-weight="bold"><tspan y="114.72" x="52.96 58.383058 72.4792 86.57535 93.211879 107.30802 118.04358 123.46664 135.38974 146.24539 157.10105 167.9567 173.37975 186.3989 197.25455 209.35645 216.77375 227.6294 233.05245 246.0716 257.9947 268.8503 279.70594">iHR-C3 Task Score Sheet</tspan></text>
<path transform="matrix(.75,0,0,.75,-2.105,-45.25403)" d="M50.08 158.24H942.24V159.2H50.08ZM50.08 179.68H942.24V180.64H50.08ZM959.68 158.24H960.64V179.68H959.68ZM1071.36 159.2H1072.32V179.68H1071.36ZM50.08 308.32H942.24V309.28H50.08Z" fill-rule="evenodd"/>
<path transform="matrix(.75,0,0,.75,-2.105,-45.25403)" d="M49.12 158.24H50.08V309.28H49.12ZM233.76 159.2H234.72V309.28H233.76ZM345.44 159.2H346.4V309.28H345.44ZM494.4 159.2H495.36V309.28H494.4ZM643.36 159.2H644.32V309.28H643.36ZM792.32 159.2H793.28V309.28H792.32ZM941.28 159.2H942.24V309.28H941.28ZM50.08 347.52H942.24V348.48H50.08ZM959.68 179.68H960.64V309.28H959.68ZM1071.36 180.64H1072.32V309.28H1071.36Z" fill-rule="evenodd"/>
<path transform="matrix(.75,0,0,.75,-2.105,-45.25403)" d="M345.44 348.48H346.4V368.96H345.44ZM494.4 348.48H495.36V368.96H494.4ZM643.36 348.48H644.32V368.96H643.36Z" fill="#bfbfbf" fill-rule="evenodd"/>
<path transform="matrix(.75,0,0,.75,-2.105,-45.25403)" d="M50.08 368.96H942.24V369.92H50.08ZM50.08 497.6H942.24V498.56H50.08Z" fill-rule="evenodd"/>
<path transform="matrix(.75,0,0,.75,-2.105,-45.25403)" d="M49.12 347.52H50.08V498.56H49.12ZM233.76 348.48H234.72V498.56H233.76ZM345.44 369.92H346.4V498.56H345.44ZM494.4 369.92H495.36V498.56H494.4ZM643.36 369.92H644.32V498.56H643.36ZM792.32 348.48H793.28V498.56H792.32ZM941.28 348.48H942.24V498.56H941.28ZM959.68 347.52H960.64V498.56H959.68ZM1071.36 348.48H1072.32V498.56H1071.36ZM960.64 158.24H1072.32V159.2H960.64ZM960.64 179.68H1072.32V180.64H960.64ZM960.64 308.32H1072.32V309.28H960.64Z" fill-rule="evenodd"/>
<path transform="matrix(.75,0,0,.75,-2.105,-45.25403)" d="M960.64 347.52H1072.32V348.48H960.64ZM960.64 368.96H1072.32V369.92H960.64ZM960.64 497.6H1072.32V498.56H960.64Z" fill-rule="evenodd"/>
</g>
</svg>
