<svg xmlns="http://www.w3.org/2000/svg" xmlns:xlink="http://www.w3.org/1999/xlink" version="1.1" width="840.868" height="360.973" viewBox="0 0 840.868 360.973">
<defs>
<clipPath id="clip_0">
<path transform="matrix(1,0,0,-1,-1.052,542.7)" d="M0 0H841.92007V595.32H0Z"/>
</clipPath>
</defs>
<g clip-path="url(#clip_0)">
<path transform="matrix(.75,0,0,.75,-1.052,-52.619997)" d="M27.04 90.88H484V127.68H27.04ZM27.04 142.88H1076.48V161.28H27.04Z" fill="#ffffff" fill-rule="evenodd"/>
<path transform="matrix(.75,0,0,.75,-1.052,-52.619997)" d="M27.04 161.12H942.88V183.2H27.04ZM961.6 161.12H1076.48V183.2H961.6Z" fill="#666666" fill-rule="evenodd"/>
<path transform="matrix(.75,0,0,.75,-1.052,-52.619997)" d="M27.04 183.04H331.04V314.72H27.04Z" fill="#cccccc"/>
<path transform="matrix(.75,0,0,.75,-1.052,-52.619997)" d="M330.88 183.04H942.88V314.72H330.88ZM961.6 183.04H1076.48V314.72H961.6ZM27.04 336.48H1076.48V354.88H27.04Z" fill="#ffffff" fill-rule="evenodd"/>
<path transform="matrix(.75,0,0,.75,-1.052,-52.619997)" d="M27.04 354.72H942.88V376.8H27.04ZM961.6 354.72H1076.48V376.8H961.6Z" fill="#666666" fill-rule="evenodd"/>
<path transform="matrix(.75,0,0,.75,-1.052,-52.619997)" d="M27.04 376.64H331.04V508.32H27.04Z" fill="#cccccc"/>
<path transform="matrix(.75,0,0,.75,-1.052,-52.619997)" d="M330.88 376.64H942.88V508.32H330.88ZM961.6 376.64H1076.48V508.32H961.6Z" fill="#ffffff" fill-rule="evenodd"/>
<text xml:space="preserve" transform="matrix(.75 0 0 .75 -1.052 -52.619997)" font-size="14.0795" font-family="F1" font-weight="bold"><tspan y="157.12" x="29.12 39.398038 47.14176 58.405366 62.20683 71.59775 79.42809 88.15738 93.636569">Raw Score</tspan></text>
<text fill="#ffffff" xml:space="preserve" transform="matrix(.75 0 0 .75 -1.052 -52.619997)" font-size="14.0795" font-family="F1" font-weight="bold"><tspan y="177.28" x="82.4 91.00032 98.830669 106.66101 119.17995 122.981418 133.25946 141.08982 153.60875 236.11463 244.84392 252.58765 260.418 272.93693 276.7384 287.01646 295.74577 304.34608 346.72538 357.00343 364.74717 370.22636 375.70555 383.1677 386.96919 399.07756 406.5397 410.3412 419.0705 427.6708 436.27113 445.00044 452.74418 461.47349 524.12728 534.4053 542.2356 550.0659 554.7545 562.4982 571.22756 576.57778 584.4081 593.1374 654.52407 663.915 668.702 677.30239 682.6526 686.56436 695.1647 703.894 707.69546 718.5366 724.0158 732.61618 740.4465 748.2768 753.756 757.55746 765.38778 847.18966 856.58059 864.4109 873.1402 878.4904 1002.2492 1012.5272 1020.27096 1029.0001">Team NameTeam CodeCarry My LuggageRestaurantStoring GroceriesScoreRank</tspan></text>
<text xml:space="preserve" transform="matrix(.75 0 0 .75 -1.052 -52.619997)" font-size="14.0795" font-family="F1" font-weight="bold"><tspan y="199.2" x="41.6 50.200319 54.112054 64.279819 74.557849 83.158168 87.84675 231.31687 235.2286 245.50666 255.67443 260.363 268.10676">TIDBotsIHR-01</tspan></text>
<text xml:space="preserve" transform="matrix(.75 0 0 .75 -1.052 -52.619997)" font-size="11.9995" font-family="F2"><tspan y="198.24" x="389.44 396.11357 402.7871 409.62684 412.96067 419.63423 542.3891 549.0627 555.73629 562.576 565.90988 572.58346 695.3384 702.01199 708.8517 715.52529 718.85916 725.5327">250.00175.00167.00</tspan></text>
<text fill="#ff9900" xml:space="preserve" transform="matrix(.75 0 0 .75 -1.052 -52.619997)" font-size="11.9995" font-family="F1" font-weight="bold"><tspan y="198.24" x="848.32 854.9936 861.6672 868.5069 871.84078 878.51437">592.00</tspan></text>
<text xml:space="preserve" transform="matrix(.75 0 0 .75 -1.052 -52.619997)" font-size="11.9995" font-family="F2"><tspan y="198.24" x="1016.16">1</tspan></text>
<text xml:space="preserve" transform="matrix(.75 0 0 .75 -1.052 -52.619997)" font-size="14.0795" font-family="F1" font-weight="bold"><tspan y="221.12" x="41.6 50.200319 60.47835 70.19321 74.10494 231.37296 235.17443 245.45247 255.73052 260.4191 268.16285">TRAILIHR-02</tspan></text>
<text xml:space="preserve" transform="matrix(.75 0 0 .75 -1.052 -52.619997)" font-size="11.9995" font-family="F2"><tspan y="220.16" x="389.44 396.11357 402.7871 409.62684 412.96067 419.63423 542.3891 549.0627 555.73629 562.576 565.90988 572.58346 702.0581 708.7317 712.21157 718.88516">400.00100.005.00</tspan></text>
<text fill="#ff9900" xml:space="preserve" transform="matrix(.75 0 0 .75 -1.052 -52.619997)" font-size="11.9995" font-family="F1" font-weight="bold"><tspan y="220.16" x="848.32 854.9936 861.6672 868.5069 871.84078 878.51437">505.00</tspan></text>
<text xml:space="preserve" transform="matrix(.75 0 0 .75 -1.052 -52.619997)" font-size="11.9995" font-family="F2"><tspan y="220.16" x="1016.16">2</tspan></text>
<text xml:space="preserve" transform="matrix(.75 0 0 .75 -1.052 -52.619997)" font-size="14.0795" font-family="F1" font-weight="bold"><tspan y="243.04" x="41.6 51.878034 55.679498 64.279819 68.19155 75.93527 79.84701 88.44733 97.17661 101.8652 113.69198 122.421268 130.25162 138.08197 145.91233 154.51265 158.4244 172.15328 182.43132 191.03165 203.55059 231.2872 235.19895 245.47699 255.64476 260.33335 268.1637">Hibikino-Musashi@HomeIHR-03</tspan></text>
<text xml:space="preserve" transform="matrix(.75 0 0 .75 -1.052 -52.619997)" font-size="11.9995" font-family="F2"><tspan y="242.08" x="396.16 402.83357 406.1674 413.0071 549.0814 555.755 559.23489 565.90847 702.1028 708.77639 712.1102 718.7838">0.000.000.00</tspan></text>
<text fill="#ff9900" xml:space="preserve" transform="matrix(.75 0 0 .75 -1.052 -52.619997)" font-size="11.9995" font-family="F1" font-weight="bold"><tspan y="242.08" x="855.04 861.71359 865.0474 871.88717">0.00</tspan></text>
<text xml:space="preserve" transform="matrix(.75 0 0 .75 -1.052 -52.619997)" font-size="11.9995" font-family="F2"><tspan y="242.08" x="1016.16">6</tspan></text>
<text xml:space="preserve" transform="matrix(.75 0 0 .75 -1.052 -52.619997)" font-size="14.0795" font-family="F1" font-weight="bold"><tspan y="264.96" x="41.6 49.430345 59.708379 73.43726 81.26761 89.09795 94.57714 231.2891 235.20084 245.47888 255.64665 260.33525 268.1656">eR@sersIHR-04</tspan></text>
<text xml:space="preserve" transform="matrix(.75 0 0 .75 -1.052 -52.619997)" font-size="11.9995" font-family="F2"><tspan y="264" x="389.44 396.11357 402.7871 409.62684 412.96067 419.63423 542.3891 549.0627 555.73629 562.576 565.90988 572.58346 702.0581 708.7317 712.21157 718.88516">375.00125.005.00</tspan></text>
<text fill="#ff9900" xml:space="preserve" transform="matrix(.75 0 0 .75 -1.052 -52.619997)" font-size="11.9995" font-family="F1" font-weight="bold"><tspan y="264" x="848.32 854.9936 861.6672 868.5069 871.84078 878.51437">505.00</tspan></text>
<text xml:space="preserve" transform="matrix(.75 0 0 .75 -1.052 -52.619997)" font-size="11.9995" font-family="F2"><tspan y="264" x="1016.16">2</tspan></text>
<text xml:space="preserve" transform="matrix(.75 0 0 .75 -1.052 -52.619997)" font-size="14.0795" font-family="F1" font-weight="bold"><tspan y="286.88" x="41.6 50.990915 61.9424 72.220439 76.021907 84.62222 231.33063 235.1321 245.41014 255.68819 260.37678 268.1205">SOBITSIHR-05</tspan></text>
<text xml:space="preserve" transform="matrix(.75 0 0 .75 -1.052 -52.619997)" font-size="11.9995" font-family="F2"><tspan y="285.92" x="396.16 402.83357 406.1674 413.0071 542.36178 549.03536 555.87509 562.54867 565.8825 572.5561 698.6709 705.3445 712.1842 715.51809 722.19168">0.00220.0064.00</tspan></text>
<text fill="#ff9900" xml:space="preserve" transform="matrix(.75 0 0 .75 -1.052 -52.619997)" font-size="11.9995" font-family="F1" font-weight="bold"><tspan y="285.92" x="848.32 854.9936 861.6672 868.5069 871.84078 878.51437">284.00</tspan></text>
<text xml:space="preserve" transform="matrix(.75 0 0 .75 -1.052 -52.619997)" font-size="11.9995" font-family="F2"><tspan y="285.92" x="1016.16">5</tspan></text>
<text xml:space="preserve" transform="matrix(.75 0 0 .75 -1.052 -52.619997)" font-size="14.0795" font-family="F1" font-weight="bold"><tspan y="308.8" x="41.6 50.200319 58.030664 70.13904 80.3068 84.995388 95.16315 104.55406 231.41037 235.21184 245.48989 255.65766 260.34626 268.09">TaMC-HSRIHR-06</tspan></text>
<text xml:space="preserve" transform="matrix(.75 0 0 .75 -1.052 -52.619997)" font-size="11.9995" font-family="F2"><tspan y="307.84" x="396.16 402.83357 406.1674 413.0071 542.36178 549.03536 555.87509 562.54867 565.8825 572.5561 695.31106 701.9846 708.82437 715.4979 718.8318 725.5054">0.00100.00246.00</tspan></text>
<text fill="#ff9900" xml:space="preserve" transform="matrix(.75 0 0 .75 -1.052 -52.619997)" font-size="11.9995" font-family="F1" font-weight="bold"><tspan y="307.84" x="848.32 854.9936 861.6672 868.5069 871.84078 878.51437">346.00</tspan></text>
<text xml:space="preserve" transform="matrix(.75 0 0 .75 -1.052 -52.619997)" font-size="11.9995" font-family="F2"><tspan y="307.84" x="1016.16">4</tspan></text>
<text xml:space="preserve" transform="matrix(.75 0 0 .75 -1.052 -52.619997)" font-size="14.0795" font-family="F1" font-weight="bold"><tspan y="350.72" x="29.12 39.398038 47.99836 53.47754 65.8675 73.697849 77.60958 81.41105 88.4508 96.28114 105.01043 108.8119 118.20281 126.03316 134.76245 140.11267">Normalized Score</tspan></text>
<text fill="#ffffff" xml:space="preserve" transform="matrix(.75 0 0 .75 -1.052 -52.619997)" font-size="14.0795" font-family="F1" font-weight="bold"><tspan y="370.88" x="82.4 91.00032 98.830669 106.66101 119.17995 122.981418 133.25946 141.08982 153.60875 236.11463 244.84392 252.58765 260.418 272.93693 276.7384 287.01646 295.74577 304.34608 346.72538 357.00343 364.74717 370.22636 375.70555 383.1677 386.96919 399.07756 406.5397 410.3412 419.0705 427.6708 436.27113 445.00044 452.74418 461.47349 524.12728 534.4053 542.2356 550.0659 554.7545 562.4982 571.22756 576.57778 584.4081 593.1374 654.52407 663.915 668.702 677.30239 682.6526 686.56436 695.1647 703.894 707.69546 718.5366 724.0158 732.61618 740.4465 748.2768 753.756 757.55746 765.38778 847.18966 856.58059 864.4109 873.1402 878.4904 1002.2492 1012.5272 1020.27096 1029.0001">Team NameTeam CodeCarry My LuggageRestaurantStoring GroceriesScoreRank</tspan></text>
<text xml:space="preserve" transform="matrix(.75 0 0 .75 -1.052 -52.619997)" font-size="14.0795" font-family="F1" font-weight="bold"><tspan y="392.8" x="41.6 50.200319 54.112054 64.279819 74.557849 83.158168 87.84675 231.31687 235.2286 245.50666 255.67443 260.363 268.10676">TIDBotsIHR-01</tspan></text>
<text xml:space="preserve" transform="matrix(.75 0 0 .75 -1.052 -52.619997)" font-size="11.9995" font-family="F2"><tspan y="391.84" x="392.8 399.47355 406.1471 409.62696 416.3005 545.77517 552.4487 559.1223 562.6022 569.27578 698.75039 705.42398 712.09756 715.4314 722.2711">62.5079.5567.89</tspan></text>
<text fill="#ff9900" xml:space="preserve" transform="matrix(.75 0 0 .75 -1.052 -52.619997)" font-size="11.9995" font-family="F1" font-weight="bold"><tspan y="391.84" x="848.32 854.9936 861.6672 868.5069 871.84078 878.51437">209.93</tspan></text>
<text xml:space="preserve" transform="matrix(.75 0 0 .75 -1.052 -52.619997)" font-size="11.9995" font-family="F2"><tspan y="391.84" x="1016.16">1</tspan></text>
<text xml:space="preserve" transform="matrix(.75 0 0 .75 -1.052 -52.619997)" font-size="14.0795" font-family="F1" font-weight="bold"><tspan y="414.72" x="41.6 50.200319 60.47835 70.19321 74.10494 231.37296 235.17443 245.45247 255.73052 260.4191 268.16285">TRAILIHR-02</tspan></text>
<text xml:space="preserve" transform="matrix(.75 0 0 .75 -1.052 -52.619997)" font-size="11.9995" font-family="F2"><tspan y="413.76" x="389.44 396.11357 402.7871 409.62684 412.96067 419.63423 545.74899 552.42257 559.0961 562.576 569.2496 702.0841 708.7577 712.09158 718.9313">100.0045.452.03</tspan></text>
<text fill="#ff9900" xml:space="preserve" transform="matrix(.75 0 0 .75 -1.052 -52.619997)" font-size="11.9995" font-family="F1" font-weight="bold"><tspan y="413.76" x="848.32 854.9936 861.6672 868.5069 871.84078 878.51437">147.49</tspan></text>
<text xml:space="preserve" transform="matrix(.75 0 0 .75 -1.052 -52.619997)" font-size="11.9995" font-family="F2"><tspan y="413.76" x="1016.16">3</tspan></text>
<text xml:space="preserve" transform="matrix(.75 0 0 .75 -1.052 -52.619997)" font-size="14.0795" font-family="F1" font-weight="bold"><tspan y="436.64" x="41.6 51.878034 55.679498 64.279819 68.19155 75.93527 79.84701 88.44733 97.17661 101.8652 113.69198 122.421268 130.25162 138.08197 145.91233 154.51265 158.4244 172.15328 182.43132 191.03165 203.55059 231.2872 235.19895 245.47699 255.64476 260.33335 268.1637">Hibikino-Musashi@HomeIHR-03</tspan></text>
<text xml:space="preserve" transform="matrix(.75 0 0 .75 -1.052 -52.619997)" font-size="11.9995" font-family="F2"><tspan y="435.68" x="396.16 402.83357 406.1674 413.0071 549.0814 555.755 559.23489 565.90847 702.1028 708.77639 712.1102 718.7838">0.000.000.00</tspan></text>
<text fill="#ff9900" xml:space="preserve" transform="matrix(.75 0 0 .75 -1.052 -52.619997)" font-size="11.9995" font-family="F1" font-weight="bold"><tspan y="435.68" x="855.04 861.71359 865.0474 871.88717">0.00</tspan></text>
<text xml:space="preserve" transform="matrix(.75 0 0 .75 -1.052 -52.619997)" font-size="11.9995" font-family="F2"><tspan y="435.68" x="1016.16">6</tspan></text>
<text xml:space="preserve" transform="matrix(.75 0 0 .75 -1.052 -52.619997)" font-size="14.0795" font-family="F1" font-weight="bold"><tspan y="458.56" x="41.6 49.430345 59.708379 73.43726 81.26761 89.09795 94.57714 231.2891 235.20084 245.47888 255.64665 260.33525 268.1656">eR@sersIHR-04</tspan></text>
<text xml:space="preserve" transform="matrix(.75 0 0 .75 -1.052 -52.619997)" font-size="11.9995" font-family="F2"><tspan y="457.6" x="392.8 399.47355 406.1471 409.62696 416.3005 545.77517 552.4487 559.1223 562.6022 569.27578 702.1102 708.7838 712.1177 718.79129">93.7556.822.03</tspan></text>
<text fill="#ff9900" xml:space="preserve" transform="matrix(.75 0 0 .75 -1.052 -52.619997)" font-size="11.9995" font-family="F1" font-weight="bold"><tspan y="457.6" x="848.32 854.9936 861.6672 868.5069 871.84078 878.51437">152.60</tspan></text>
<text xml:space="preserve" transform="matrix(.75 0 0 .75 -1.052 -52.619997)" font-size="11.9995" font-family="F2"><tspan y="457.6" x="1016.16">2</tspan></text>
<text xml:space="preserve" transform="matrix(.75 0 0 .75 -1.052 -52.619997)" font-size="14.0795" font-family="F1" font-weight="bold"><tspan y="480.48" x="41.6 50.990915 61.9424 72.220439 76.021907 84.62222 231.33063 235.1321 245.41014 255.68819 260.37678 268.1205">SOBITSIHR-05</tspan></text>
<text xml:space="preserve" transform="matrix(.75 0 0 .75 -1.052 -52.619997)" font-size="11.9995" font-family="F2"><tspan y="479.52" x="396.16 402.83357 406.1674 413.0071 542.36178 549.03536 555.87509 562.54867 565.8825 572.5561 698.6709 705.3445 712.1842 715.51809 722.19168">0.00100.0026.02</tspan></text>
<text fill="#ff9900" xml:space="preserve" transform="matrix(.75 0 0 .75 -1.052 -52.619997)" font-size="11.9995" font-family="F1" font-weight="bold"><tspan y="479.52" x="848.32 854.9936 861.6672 868.5069 871.84078 878.51437">126.02</tspan></text>
<text xml:space="preserve" transform="matrix(.75 0 0 .75 -1.052 -52.619997)" font-size="11.9995" font-family="F2"><tspan y="479.52" x="1016.16">5</tspan></text>
<text xml:space="preserve" transform="matrix(.75 0 0 .75 -1.052 -52.619997)" font-size="14.0795" font-family="F1" font-weight="bold"><tspan y="502.4" x="41.6 50.200319 58.030664 70.13904 80.3068 84.995388 95.16315 104.55406 231.41037 235.21184 245.48989 255.65766 260.34626 268.09">TaMC-HSRIHR-06</tspan></text>
<text xml:space="preserve" transform="matrix(.75 0 0 .75 -1.052 -52.619997)" font-size="11.9995" font-family="F2"><tspan y="501.44" x="396.16 402.83357 406.1674 413.0071 545.72158 552.39517 559.23489 562.5687 569.2423 695.3571 702.0307 708.7043 715.544 718.87789 725.55148">0.0045.45100.00</tspan></text>
<text fill="#ff9900" xml:space="preserve" transform="matrix(.75 0 0 .75 -1.052 -52.619997)" font-size="11.9995" font-family="F1" font-weight="bold"><tspan y="501.44" x="848.32 854.9936 861.6672 868.5069 871.84078 878.51437">145.45</tspan></text>
<text xml:space="preserve" transform="matrix(.75 0 0 .75 -1.052 -52.619997)" font-size="11.9995" font-family="F2"><tspan y="501.44" x="1016.16">4</tspan></text>
<text xml:space="preserve" transform="matrix(.75 0 0 .75 -1.052 -52.619997)" font-size="19.9992" font-family="F1" font-weight="bold"><tspan y="115.84" x="29.92 35.476419 49.9192 64.361988 71.02187 85.46465 96.58726 102.14368 114.143199 125.2658 136.38842 147.51102 153.31079 166.51027 177.63288 189.84918 197.84886 208.97147 214.5279 227.8672 240.08351 251.20612 262.32875">iHR-C3 Task Score Sheet</tspan></text>
<path transform="matrix(.75,0,0,.75,-1.052,-52.619997)" d="M26.88 160.64H943.2V161.6H26.88ZM26.88 182.56H943.2V183.52H26.88ZM961.12 160.64H962.08V182.56H961.12ZM1075.84 161.6H1076.8V182.56H1075.84ZM26.88 314.08H943.2V315.04H26.88Z" fill-rule="evenodd"/>
<path transform="matrix(.75,0,0,.75,-1.052,-52.619997)" d="M25.92 160.64H26.88V315.04H25.92ZM215.68 161.6H216.64V315.04H215.68ZM330.4 161.6H331.36V315.04H330.4ZM483.36 161.6H484.32V315.04H483.36ZM636.32 161.6H637.28V315.04H636.32ZM789.28 161.6H790.24V315.04H789.28ZM942.24 161.6H943.2V315.04H942.24ZM26.88 354.24H943.2V355.2H26.88ZM961.12 182.56H962.08V315.04H961.12ZM1075.84 183.52H1076.8V315.04H1075.84Z" fill-rule="evenodd"/>
<path transform="matrix(.75,0,0,.75,-1.052,-52.619997)" d="M330.4 355.2H331.36V376.16H330.4ZM483.36 355.2H484.32V376.16H483.36ZM636.32 355.2H637.28V376.16H636.32Z" fill="#bfbfbf" fill-rule="evenodd"/>
<path transform="matrix(.75,0,0,.75,-1.052,-52.619997)" d="M26.88 376.16H943.2V377.12H26.88ZM26.88 507.68H943.2V508.64H26.88Z" fill-rule="evenodd"/>
<path transform="matrix(.75,0,0,.75,-1.052,-52.619997)" d="M25.92 354.24H26.88V508.64H25.92ZM215.68 355.2H216.64V508.64H215.68ZM330.4 377.12H331.36V508.64H330.4ZM483.36 377.12H484.32V508.64H483.36ZM636.32 377.12H637.28V508.64H636.32ZM789.28 355.2H790.24V508.64H789.28ZM942.24 355.2H943.2V508.64H942.24ZM961.12 354.24H962.08V508.64H961.12ZM1075.84 355.2H1076.8V508.64H1075.84ZM962.08 160.64H1076.8V161.6H962.08ZM962.08 182.56H1076.8V183.52H962.08ZM962.08 314.08H1076.8V315.04H962.08Z" fill-rule="evenodd"/>
<path transform="matrix(.75,0,0,.75,-1.052,-52.619997)" d="M962.08 354.24H1076.8V355.2H962.08ZM962.08 376.16H1076.8V377.12H962.08ZM962.08 507.68H1076.8V508.64H962.08Z" fill-rule="evenodd"/>
</g>
</svg>
